<?xml version="1.0" standalone="no"?>
<!DOCTYPE svg PUBLIC "-//W3C//DTD SVG 20010904//EN"
 "http://www.w3.org/TR/2001/REC-SVG-20010904/DTD/svg10.dtd">
<svg version="1.0" xmlns="http://www.w3.org/2000/svg"
 width="300.000000pt" height="277.000000pt" viewBox="0 0 300.000000 277.000000"
 preserveAspectRatio="xMidYMid meet">
<metadata>
Created by potrace 1.10, written by Peter Selinger 2001-2011
</metadata>
<g transform="translate(0.000000,277.000000) scale(0.100000,-0.100000)"
fill="#a60dc5" stroke="none">
<path d="M0 1385 l0 -1385 1500 0 1500 0 0 1385 0 1385 -1500 0 -1500 0 0
-1385z m1351 1252 c63 -42 109 -148 135 -307 4 -22 3 -22 -4 -5 -5 11 -20 53
-33 94 -39 125 -104 201 -171 201 -41 0 -101 -63 -127 -135 -27 -71 -45 -275
-24 -275 6 0 73 11 148 25 215 40 428 99 603 167 57 22 105 38 106 37 2 -2 29
-88 60 -191 183 -598 406 -1092 664 -1468 36 -52 80 -114 99 -137 l33 -41 -75
-25 -74 -25 -49 76 c-212 330 -377 682 -521 1107 -51 152 -138 453 -161 558
-7 31 -15 57 -18 57 -2 0 -57 -18 -123 -39 -283 -94 -705 -155 -1028 -149 -53
1 -72 3 -41 5 30 1 78 5 106 8 l52 6 5 122 c3 72 11 143 21 175 18 56 63 115
105 136 32 16 123 31 101 16 -8 -5 -23 -10 -32 -10 -10 0 -38 -19 -62 -42 -60
-58 -76 -116 -76 -269 l0 -117 76 0 c55 0 73 3 65 11 -19 19 -9 263 10 251 5
-3 9 2 9 11 0 21 43 104 69 134 14 16 36 25 73 30 43 6 49 8 30 15 -12 4 -37
2 -56 -4 -37 -12 -116 -90 -116 -115 0 -8 -4 -15 -9 -15 -17 0 -51 -155 -51
-234 0 -55 -3 -75 -11 -70 -15 9 -5 146 16 229 45 174 176 270 276 202z m146
-229 c-3 -7 -5 -2 -5 12 0 14 2 19 5 13 2 -7 2 -19 0 -25z m40 0 c-3 -8 -6 -5
-6 6 -1 11 2 17 5 13 3 -3 4 -12 1 -19z m48 2 c3 -5 1 -10 -4 -10 -6 0 -11 5
-11 10 0 6 2 10 4 10 3 0 8 -4 11 -10z m-588 -37 c-3 -10 -5 -4 -5 12 0 17 2
24 5 18 2 -7 2 -21 0 -30z m-110 -35 c-3 -8 -6 -5 -6 6 -1 11 2 17 5 13 3 -3
4 -12 1 -19z m1190 -10 c-3 -8 -6 -5 -6 6 -1 11 2 17 5 13 3 -3 4 -12 1 -19z
m-1527 -943 c-15 -277 -53 -621 -86 -781 l-6 -31 113 -30 112 -29 -129 -13
c-71 -6 -150 -14 -175 -17 l-46 -6 23 88 c105 391 188 1035 196 1524 2 74 4
-9 6 -185 2 -176 -2 -410 -8 -520z m129 688 c4 -206 124 -856 241 -1298 46
-175 189 -665 196 -674 2 -2 19 4 38 13 19 9 58 16 88 16 97 0 125 14 219 111
48 49 91 89 98 89 21 0 11 15 -29 43 -54 38 -70 89 -47 149 49 127 242 284
406 332 62 18 165 20 231 5 74 -17 167 -68 225 -125 71 -68 125 -176 125 -250
0 -78 -27 -105 -144 -144 -54 -18 -132 -55 -187 -88 -121 -74 -166 -92 -237
-92 -71 0 -113 19 -221 100 -100 74 -94 75 -212 -43 -43 -42 -93 -84 -113 -92
-20 -8 -66 -15 -105 -15 -58 0 -74 -4 -96 -23 l-27 -22 -96 100 c-53 55 -151
155 -217 223 -66 67 -117 122 -114 122 3 0 54 -27 115 -60 60 -33 112 -60 115
-60 3 0 -5 33 -18 73 -122 370 -221 942 -238 1367 -3 80 -7 186 -10 235 -3 57
-1 83 5 70 5 -11 9 -39 9 -62z m164 60 c-7 -2 -21 -2 -30 0 -10 3 -4 5 12 5
17 0 24 -2 18 -5z m1494 -535 c-3 -8 -6 -5 -6 6 -1 11 2 17 5 13 3 -3 4 -12 1
-19z"/>
<path d="M998 2563 c-55 -63 -93 -256 -71 -360 7 -33 29 -29 27 5 -1 15 -3 29
-4 32 -5 16 2 205 9 218 4 10 19 41 33 70 28 57 29 61 6 35z"/>
<path d="M1896 2393 c-33 -13 -114 -42 -180 -63 -67 -22 -116 -40 -111 -41 6
-1 -21 -7 -60 -14 -141 -26 -317 -64 -323 -69 -8 -9 27 -7 94 4 214 36 367 70
375 83 4 5 11 7 17 3 6 -3 12 -2 14 3 1 6 21 12 43 15 22 3 67 14 99 25 60 21
111 28 102 13 -5 -8 45 -207 87 -347 13 -44 36 -118 50 -165 29 -96 109 -324
131 -373 8 -18 42 -97 76 -177 78 -186 223 -466 239 -462 7 1 10 -2 7 -7 -6
-9 33 -83 89 -171 53 -82 50 -80 103 -63 58 19 75 33 42 33 -16 0 -21 3 -13 8
10 6 7 16 -10 39 -12 16 -30 41 -40 54 -27 37 -159 245 -186 292 -64 115 -193
376 -241 489 -30 70 -58 125 -62 122 -4 -3 -8 4 -8 16 0 11 -11 51 -24 88 -83
231 -147 419 -171 497 -15 50 -34 114 -43 143 -8 28 -20 52 -26 51 -6 0 -38
-12 -70 -26z"/>
<path d="M510 1233 c-3 -40 -1 -68 3 -64 4 4 7 37 5 72 l-3 64 -5 -72z"/>
<path d="M500 1145 c-4 -20 -7 -41 -9 -85 -3 -38 -4 -41 -11 -20 -8 24 -8 24
-9 -6 -1 -32 -49 -278 -76 -394 -27 -116 -29 -130 -14 -131 27 -2 84 3 124 10
l40 7 -43 14 c-23 7 -47 18 -52 25 -8 10 3 106 34 303 13 77 28 251 23 268 -2
10 -6 15 -7 9z m-13 -172 c-3 -10 -5 -4 -5 12 0 17 2 24 5 18 2 -7 2 -21 0
-30z"/>
<path d="M712 1605 c0 -16 2 -22 5 -12 2 9 2 23 0 30 -3 6 -5 -1 -5 -18z"/>
<path d="M725 1480 c7 -96 13 -122 24 -116 4 3 4 27 0 53 -5 26 -12 68 -15 93
-11 77 -17 59 -9 -30z"/>
<path d="M740 1334 c0 -8 4 -13 8 -10 5 3 7 -7 4 -22 -9 -66 74 -466 159 -765
31 -107 37 -142 28 -153 -9 -11 -15 -11 -39 1 -25 13 -40 11 -40 -5 0 -4 20
-27 45 -52 25 -25 45 -44 45 -41 0 2 15 -15 33 -39 18 -23 43 -48 55 -54 12
-6 19 -14 15 -17 -3 -4 -1 -7 5 -7 7 0 12 2 12 5 0 11 -101 350 -109 365 -4 8
-34 122 -66 252 -33 132 -63 234 -69 231 -5 -3 -6 -1 -2 5 8 14 -14 145 -27
153 -5 3 -8 8 -7 10 1 2 -3 39 -10 82 -9 52 -17 77 -26 77 -8 0 -14 -7 -14
-16z m157 -960 c-3 -3 -12 -4 -19 -1 -8 3 -5 6 6 6 11 1 17 -2 13 -5z"/>
<path d="M1878 826 c-149 -54 -316 -185 -372 -293 -26 -51 -21 -88 18 -131 19
-20 36 -35 38 -32 2 3 19 36 38 73 64 125 169 240 262 288 40 21 83 25 93 9
13 -22 -45 -107 -210 -306 l-105 -127 52 -39 c82 -62 144 -88 211 -88 96 0
128 25 201 160 60 110 83 130 146 130 28 0 73 -9 102 -20 73 -28 96 -26 104 6
10 38 -13 125 -46 177 -46 72 -106 124 -197 169 -78 39 -92 42 -176 45 -78 3
-103 0 -159 -21z"/>
<path d="M1867 711 c-20 -9 -35 -20 -32 -23 3 -3 -5 -8 -19 -12 -14 -3 -33
-20 -41 -36 -9 -17 -20 -28 -25 -25 -5 3 -11 1 -15 -5 -4 -6 5 -10 20 -10 27
0 48 -15 57 -40 3 -10 10 -4 23 18 11 18 23 32 27 32 4 0 8 5 8 10 0 6 9 20
19 32 11 11 24 34 30 49 12 35 3 36 -52 10z"/>
<path d="M1685 538 c-29 -30 -46 -56 -50 -82 -16 -80 35 -70 113 24 50 61 53
93 9 98 -22 3 -38 -6 -72 -40z"/>
<path d="M2207 435 c-8 -8 -17 -11 -21 -8 -3 3 -9 -3 -13 -13 -3 -10 -10 -21
-14 -24 -4 -3 -21 -30 -37 -60 -37 -67 -31 -88 16 -58 17 11 29 25 25 31 -3 5
-1 7 4 4 6 -4 40 7 77 23 36 17 72 30 81 30 8 0 15 4 15 9 0 4 21 14 46 21
l47 13 -69 23 c-80 27 -137 30 -157 9z"/>
<path d="M830 410 c0 -5 5 -10 11 -10 5 0 7 5 4 10 -3 6 -8 10 -11 10 -2 0 -4
-4 -4 -10z"/>
<path d="M1595 379 c-17 -32 -19 -29 29 -43 8 -3 20 2 27 10 9 11 7 19 -15 39
l-26 24 -15 -30z"/>
</g>
</svg>
