<?xml version="1.0" standalone="no"?>
<!DOCTYPE svg PUBLIC "-//W3C//DTD SVG 20010904//EN"
 "http://www.w3.org/TR/2001/REC-SVG-20010904/DTD/svg10.dtd">
<svg version="1.0" xmlns="http://www.w3.org/2000/svg"
 width="300.000000pt" height="277.000000pt" viewBox="0 0 300.000000 277.000000"
 preserveAspectRatio="xMidYMid meet">
<metadata>
Created by potrace 1.10, written by Peter Selinger 2001-2011
</metadata>
<g transform="translate(0.000000,277.000000) scale(0.100000,-0.100000)"
fill="#a60dc5" stroke="none">
<path d="M1199 2631 c-53 -34 -102 -111 -124 -196 -21 -83 -31 -220 -16 -229
8 -5 11 15 11 70 0 79 34 234 51 234 5 0 9 7 9 15 0 25 79 103 116 115 19 6
44 8 56 4 19 -7 13 -9 -30 -15 -37 -5 -59 -14 -73 -30 -26 -30 -69 -113 -69
-134 0 -9 -4 -14 -9 -11 -19 12 -29 -232 -10 -251 8 -8 -10 -11 -65 -11 l-76
0 0 117 c0 153 16 211 76 269 24 23 52 42 62 42 9 0 24 5 32 10 22 15 -69 0
-101 -16 -42 -21 -87 -80 -105 -136 -10 -32 -18 -103 -21 -175 l-5 -122 -52
-6 c-28 -3 -76 -7 -106 -8 -31 -2 -12 -4 41 -5 323 -6 745 55 1028 149 66 21
121 39 123 39 3 0 11 -26 18 -57 23 -105 110 -406 161 -558 144 -425 309 -777
521 -1107 l49 -76 74 25 75 25 -33 41 c-19 23 -63 85 -99 137 -258 376 -481
870 -664 1468 -31 103 -58 189 -60 191 -1 1 -49 -15 -106 -37 -175 -68 -388
-127 -603 -167 -75 -14 -142 -25 -148 -25 -21 0 -3 204 24 275 26 72 86 135
127 135 67 0 132 -76 171 -201 13 -41 28 -83 33 -94 7 -17 8 -17 4 5 -45 274
-152 387 -287 301z m-207 -103 c-14 -29 -29 -60 -33 -70 -7 -13 -14 -202 -9
-218 7 -22 3 -60 -6 -60 -38 0 -26 223 17 318 18 40 46 82 54 82 2 0 -9 -24
-23 -52z m1000 -160 c9 -29 28 -93 43 -143 24 -78 88 -266 171 -497 13 -37 24
-77 24 -88 0 -12 4 -19 8 -16 4 3 32 -52 62 -122 48 -113 177 -374 241 -489
27 -47 159 -255 186 -292 10 -13 28 -38 40 -54 17 -23 20 -33 10 -39 -8 -5 -3
-8 13 -8 33 0 16 -14 -42 -33 -53 -17 -50 -19 -103 63 -56 88 -95 162 -89 171
3 5 0 8 -7 7 -16 -4 -161 276 -239 462 -34 80 -68 159 -76 177 -22 49 -102
277 -131 373 -14 47 -37 121 -50 165 -42 140 -92 339 -87 347 9 15 -42 8 -102
-13 -32 -11 -77 -22 -99 -25 -22 -3 -42 -9 -43 -15 -2 -5 -8 -6 -14 -3 -6 4
-13 2 -17 -3 -8 -13 -161 -47 -375 -83 -67 -11 -102 -13 -94 -4 6 5 182 43
323 69 39 7 66 13 60 14 -5 1 44 19 111 41 66 21 147 50 180 63 32 14 64 26
70 26 6 1 18 -23 26 -51z"/>
<path d="M1492 2420 c0 -14 2 -19 5 -12 2 6 2 18 0 25 -3 6 -5 1 -5 -13z"/>
<path d="M1531 2414 c0 -11 3 -14 6 -6 3 7 2 16 -1 19 -3 4 -6 -2 -5 -13z"/>
<path d="M1570 2410 c0 -5 5 -10 11 -10 5 0 7 5 4 10 -3 6 -8 10 -11 10 -2 0
-4 -4 -4 -10z"/>
<path d="M992 2385 c0 -16 2 -22 5 -12 2 9 2 23 0 30 -3 6 -5 -1 -5 -18z"/>
<path d="M881 2344 c0 -11 3 -14 6 -6 3 7 2 16 -1 19 -3 4 -6 -2 -5 -13z"/>
<path d="M2071 2334 c0 -11 3 -14 6 -6 3 7 2 16 -1 19 -3 4 -6 -2 -5 -13z"/>
<path d="M552 2090 c-8 -489 -91 -1133 -196 -1524 l-23 -88 46 6 c25 3 104 11
175 17 l129 13 -112 29 -113 30 6 31 c14 69 46 299 60 436 26 252 37 535 34
865 -2 176 -4 259 -6 185z m-39 -921 c-4 -4 -6 24 -3 64 l5 72 3 -64 c2 -35
-1 -68 -5 -72z m-13 -163 c-6 -61 -13 -123 -16 -138 -31 -197 -42 -293 -34
-303 5 -7 29 -18 52 -25 l43 -14 -40 -7 c-40 -7 -97 -12 -124 -10 -15 1 -13
15 14 131 27 116 75 362 76 394 1 30 1 30 9 6 7 -21 8 -18 11 20 4 78 10 102
16 76 3 -11 0 -70 -7 -130z"/>
<path d="M482 985 c0 -16 2 -22 5 -12 2 9 2 23 0 30 -3 6 -5 -1 -5 -18z"/>
<path d="M665 2065 c3 -49 7 -155 10 -235 17 -425 116 -997 238 -1367 13 -40
21 -73 18 -73 -3 0 -55 27 -115 60 -61 33 -112 60 -115 60 -3 0 48 -55 114
-122 66 -68 164 -168 217 -223 l96 -100 27 22 c22 19 38 23 96 23 39 0 85 7
105 15 20 8 70 50 113 92 118 118 112 117 212 43 108 -81 150 -100 221 -100
71 0 116 18 237 92 55 33 133 70 187 88 117 39 144 66 144 144 0 117 -110 269
-242 334 -153 75 -301 70 -457 -15 -137 -74 -251 -185 -288 -281 -23 -60 -7
-111 47 -149 40 -28 50 -43 29 -43 -7 0 -50 -40 -98 -89 -94 -97 -122 -111
-219 -111 -30 0 -69 -7 -88 -16 -19 -9 -36 -15 -38 -13 -7 9 -150 499 -196
674 -117 442 -237 1092 -241 1298 0 23 -4 51 -9 62 -6 13 -8 -13 -5 -70z m52
-472 c-3 -10 -5 -4 -5 12 0 17 2 24 5 18 2 -7 2 -21 0 -30z m17 -83 c3 -25 10
-67 15 -93 4 -26 4 -50 0 -53 -11 -6 -17 20 -24 116 -8 89 -2 107 9 30z m46
-237 c7 -43 11 -80 10 -82 -1 -2 2 -7 7 -10 13 -8 35 -139 27 -153 -4 -6 -3
-8 2 -5 6 3 36 -99 69 -231 32 -130 62 -244 66 -252 8 -15 109 -354 109 -365
0 -3 -5 -5 -12 -5 -6 0 -8 3 -5 7 4 3 -3 11 -15 17 -12 6 -37 31 -55 54 -18
24 -33 41 -33 39 0 -3 -20 16 -45 41 -25 25 -45 48 -45 52 0 16 15 18 40 5 24
-12 30 -12 39 -1 9 11 3 46 -28 153 -36 129 -67 250 -105 418 -27 121 -58 319
-54 347 3 15 1 25 -4 22 -4 -3 -8 2 -8 10 0 9 6 16 14 16 9 0 17 -25 26 -77z
m1433 -471 c91 -45 151 -97 197 -169 33 -52 56 -139 46 -177 -8 -32 -31 -34
-104 -6 -29 11 -74 20 -102 20 -63 0 -86 -20 -146 -130 -73 -135 -105 -160
-201 -160 -67 0 -129 26 -211 88 l-52 39 105 127 c165 199 223 284 210 306
-10 16 -53 12 -93 -9 -93 -48 -198 -163 -262 -288 -19 -37 -36 -70 -38 -73 -2
-3 -19 12 -38 32 -50 56 -44 106 23 195 30 40 140 130 211 173 98 60 175 81
279 77 84 -3 98 -6 176 -45z m-294 -101 c-6 -15 -19 -38 -30 -49 -10 -12 -19
-26 -19 -32 0 -5 -4 -10 -8 -10 -4 0 -16 -14 -27 -32 -13 -22 -20 -28 -23 -18
-9 25 -30 40 -57 40 -15 0 -24 4 -20 10 4 6 10 8 15 5 5 -3 16 8 25 25 8 16
27 33 41 36 14 4 22 9 19 12 -6 6 63 41 82 42 9 0 9 -7 2 -29z m-131 -147 c2
-14 -13 -41 -40 -74 -78 -94 -129 -104 -113 -24 10 54 83 127 122 122 20 -2
29 -9 31 -24z m576 -128 l69 -23 -47 -13 c-25 -7 -46 -17 -46 -21 0 -5 -7 -9
-15 -9 -9 0 -45 -13 -81 -30 -37 -16 -71 -27 -77 -23 -5 3 -7 1 -4 -4 4 -6 -8
-20 -25 -31 -47 -30 -53 -9 -16 58 16 30 33 57 37 60 4 3 11 14 14 24 4 10 10
16 13 13 4 -3 13 0 21 8 20 21 77 18 157 -9z m-1519 -16 c3 -5 1 -10 -4 -10
-6 0 -11 5 -11 10 0 6 2 10 4 10 3 0 8 -4 11 -10z m806 -64 c-7 -8 -19 -13
-27 -10 -48 14 -46 11 -29 43 l15 30 26 -24 c22 -20 24 -28 15 -39z"/>
<path d="M878 373 c7 -3 16 -2 19 1 4 3 -2 6 -13 5 -11 0 -14 -3 -6 -6z"/>
<path d="M813 2133 c9 -2 23 -2 30 0 6 3 -1 5 -18 5 -16 0 -22 -2 -12 -5z"/>
<path d="M2331 1604 c0 -11 3 -14 6 -6 3 7 2 16 -1 19 -3 4 -6 -2 -5 -13z"/>
</g>
</svg>
